mtllib wood.mtl
usemtl wood
o wood
v -0.5 -0.5 -0.5 
v 0.5 -0.5 -0.5 
v -0.5 0.5 -0.5 
v 0.5 0.5 -0.5 
v -0.5 -0.5 0.5 
v 0.5 -0.5 0.5 
v -0.5 0.5 0.5 
v 0.5 0.5 0.5

vn 1 0 0
vn 0 1 0
vn 0 0 1
vn -1 0 0
vn 0 -1 0
vn 0 0 -1

vt 0.25 0 0
vt 0.5 0 0
vt 0 0.333333 0
vt 0.25 0.333333 0
vt 0.5 0.333333 0
vt 0.75 0.333333 0
vt 1 0.333333 0
vt 0 0.666667 0
vt 0.25 0.666667 0
vt 0.5 0.666667 0
vt 0.75 0.666667 0
vt 1 0.666667 0
vt 0.25 1 0
vt 0.5 1 0

f 1/1/6 3/4/6 4/5/6
f 4/5/6 2/2/6 1/1/6

f 5/13/3 6/14/3 8/10/3
f 8/10/3 7/9/3 5/13/3

f 1/7/5 2/6/5 6/11/5
f 6/11/5 5/12/5 1/7/5

f 2/6/1 4/5/1 8/10/1
f 8/10/1 6/11/1 2/6/1

f 4/5/2 3/4/2 7/9/2
f 7/9/2 8/10/2 4/5/2

f 3/4/4 1/3/4 5/8/4
f 5/8/4 7/9/4 3/4/4
